<?xml version="1.0" encoding="UTF-8" standalone="no"?>
<svg
   version="1.1"
   viewBox="0 0 640 640"
   id="svg934"
   width="640"
   height="640"
   xmlns="http://www.w3.org/2000/svg"
   xmlns:svg="http://www.w3.org/2000/svg">
  <defs
     id="defs938" />
  <g
     stroke-width="2"
     fill="none"
     stroke-linecap="butt"
     id="g860"
     style="display:inline"
     transform="translate(-188.21816,-186.47145)">
    <g
       id="g1521"
       style="display:inline">
      <path
         stroke="#948f88"
         vector-effect="non-scaling-stroke"
         d="m 644.09,758.27 q 2.59,-2.92 1.7,-6.95 C 645.15,748.37 643.2,746.61 640.84,745 625.01,734.23 605.5,730.15 586,730.71 q -3.3,0.1 -6.74,0.15 -0.51,0.01 -0.89,-0.33 -16.25,-14.73 -33.49,-29.17 a 0.3,0.3 0 0 1 0.13,-0.52 q 10.3,-2 21.77,-5.12 c 26.92,-7.33 53.61,-21.18 73.98,-40.75 q 5.96,-5.72 11.61,-11.6 1.03,-1.08 2.52,-0.98 39.97,2.74 82.07,6.31 c 7.42,0.64 12.6,-4.65 13.56,-11.7 q 1.44,-10.55 3.15,-21.83 a 2.05,2.04 -10.7 0 1 0.99,-1.45 q 23.08,-13.3 34.35,-38.05 4.17,-9.15 6.15,-18.64 7.94,-38.09 -13.86,-69.57 c -2.34,-3.38 -5.23,-6.55 -7.85,-9.83 q -0.53,-0.66 -0.39,-1.49 3.31,-19.46 5.4,-34.27 c 1.17,-8.36 -4.58,-14.65 -12.49,-16.13 q -34.58,-6.49 -76.96,-14.22 a 3.06,3.05 -9.9 0 1 -2.11,-1.48 c -8.14,-13.88 -19.17,-32 -12.15,-48.45 6.51,-15.27 21.18,-14.72 33.89,-8.52 a 1.35,1.34 -72.5 0 0 1.91,-1 q 0.19,-1.19 0.13,-2.45 -0.96,-18.71 -12.2,-34.3 c -4.3,-5.95 -9.92,-10.52 -15.89,-14.62 q -1.23,-0.85 -1.5,-2.35 c -5.15,-28.38 -24.41,-53.33 -49.03,-67.34 q -27.91,-15.9 -61.13,-14.17 -12.02,0.62 -20.19,2.56 -37.21,8.83 -62.09,37.68 c -3.52,4.08 -7.19,8.35 -10.15,12.9 q -15.66,24.13 -20.99,48.9 -2.53,11.78 -5.34,24.01 -2.86,12.45 -11.92,23.63 -4.1,5.07 -5.7,6.54 c -15.82,14.56 -31.6,29.53 -45.75,46.39 q -12.53,14.91 -23.99,31.41 -9.5,13.66 -23.99,38.37 -4.98,8.49 -9.64,17.26 c -7.6,14.32 -15.07,27.92 -23.06,41.62 -9.86,16.92 -20.54,32.05 -33.93,45.59 q -22.03,22.27 -48,38.74 c -5.28,3.35 -9.84,8.62 -5.01,14.85 q 3.09,3.99 8.64,4.85 15.68,2.43 32,2.94 27.86,0.88 57.76,-1.58 24.12,-1.98 47.63,-7.4 a 1.68,1.68 0 0 1 1.56,0.44 q 28.24,27.78 64.74,43.08 2.63,1.11 4.17,3.49 9.97,15.41 20.66,32.73 5.44,8.82 9.8,17.55 a 0.39,0.39 0 0 1 -0.3,0.56 q -11.6,1.56 -20.74,8.66 -2.98,2.32 -5.35,4.57"
         id="path738"
         style="display:inline" />
      <path
         stroke="#7e7f76"
         vector-effect="non-scaling-stroke"
         d="m 644.09,758.27 q -4.83,4.09 -9.61,0.78 -1.11,-0.76 -2.26,-1.42 -0.74,-0.42 -0.31,0.3 c 3.22,5.46 7.91,13.36 1.58,18.39 -7.97,6.35 -13.81,-6.13 -16.86,-10.19 q -1.84,-2.46 -3.91,-3.62"
         id="path740"
         style="display:inline" />
      <path
         stroke="#948f88"
         vector-effect="non-scaling-stroke"
         d="m 612.72,762.51 q -6.98,-6.5 -16.73,-9.27 c -10.54,-3 -23.61,-4 -32.87,2.54"
         id="path742"
         style="display:inline" />
      <path
         stroke="#7e7f76"
         vector-effect="non-scaling-stroke"
         d="m 563.12,755.78 -3.05,2.23 a 1.02,1.02 0 0 0 0.02,1.65 c 1.99,1.4 4.24,2.93 5.26,5.21 q 2.01,4.48 -0.02,8.66 c -3.61,7.42 -11.12,2.99 -15.34,-0.52 q -1.94,-1.62 -0.83,0.65 c 2.96,6.04 7.83,17.17 -0.38,21.66 -4.13,2.26 -8.58,0.38 -10.8,-3.55 q -3.95,-7.01 -8.51,-12.62 c -6.18,-7.58 -14.76,-12.55 -24.04,-15.07 q -25.61,-6.93 -48.46,6.82 c -4.02,2.43 -7.58,5.99 -11.48,8.87 -3.93,2.91 -9.24,3.55 -12.19,-0.98 q -1.85,-2.84 -0.95,-6.7 c 1.42,-6.11 5.06,-10.55 9.4,-14.91"
         id="path744"
         style="display:inline" />
      <path
         stroke="#948f88"
         vector-effect="non-scaling-stroke"
         d="m 473.4,701.44 a 0.15,0.15 0 0 0 -0.15,0.21 q 1.48,2.94 3.28,5.7 10.74,16.47 20.91,33 0.31,0.51 0.92,0.47 12.65,-0.96 24.03,1.88 3.19,0.79 6.22,2.33 0.45,0.23 0.84,-0.09 7.69,-6.19 17.67,-9.86 a 0.48,0.48 0 0 0 0.17,-0.79 q -3.59,-3.55 -6.88,-6.26 -12.81,-10.57 -27.54,-23.13 -0.89,-0.76 -2.01,-0.78 -17.1,-0.17 -37.46,-2.68"
         id="path844"
         style="display:inline" />
    </g>
    <path
       stroke="#613f22"
       vector-effect="non-scaling-stroke"
       d="m 523.96,256.9 q -0.85,0.53 -1.7,0.89 -0.96,0.42 -1.79,1.01 c -15.32,11.11 -27.19,28.71 -34.09,46.25 q -5.32,13.54 -7.52,24.27 c -4.06,19.8 -8.46,38.06 -21.41,53.59 q -7.7,9.23 -16.09,17.26 a 0.48,0.48 0 0 0 0.12,0.77 c 9.73,4.71 21.99,1.45 30.73,-4.61 q 0.47,-0.32 1.01,-0.13 a 0.34,0.34 0 0 1 0.23,0.38 q -1.25,8.1 -4.79,15.57 -1.66,3.49 -5.21,7.14"
       id="path748"
       style="display:inline" />
    <path
       stroke="#4d2e16"
       vector-effect="non-scaling-stroke"
       d="m 463.45,419.29 q -9.98,4.86 -19.65,2.5"
       id="path750" />
    <path
       stroke="#613f22"
       vector-effect="non-scaling-stroke"
       d="m 443.8,421.79 q -8.98,-2 -13.79,-9.26 a 0.72,0.71 50.5 0 0 -1.11,-0.11 q -14.38,14.64 -27.59,30.9 -2.83,3.5 -5.89,7.89 a 0.67,0.67 0 0 0 0.24,0.97 q 2.81,1.5 6.21,1.78 14.12,1.19 25.62,-7.01 a 0.55,0.55 0 0 1 0.87,0.44 q 0.22,15.27 -12.07,22.39 c -10.04,5.82 -21.36,3.5 -30.8,-2.56 a 0.82,0.82 0 0 0 -1.12,0.23 q -4.08,6.03 -7.61,11.26 c -4.28,6.35 -7.57,13.23 -11.48,19.77 q -0.35,0.6 0.28,0.88 c 1.62,0.71 3.3,1.58 4.7,2.68 9.01,7.11 22.58,7.56 32.58,2.17 7.31,-3.93 11.78,-9.51 16.28,-16.25 a 1.02,1.02 0 0 1 1.85,0.35 q 2.5,11.4 -2.75,21.44 -3.55,6.81 -11.55,13.23"
       id="path752" />
    <path
       stroke="#4d2e16"
       vector-effect="non-scaling-stroke"
       d="m 406.67,522.98 q -6.62,2.55 -12.41,3.82 -6.01,1.33 -10.87,0.11"
       id="path754" />
    <path
       stroke="#613f22"
       vector-effect="non-scaling-stroke"
       d="m 383.39,526.91 c -3.43,-0.99 -6.86,-1.5 -9.82,-2.98 q -8.37,-4.16 -10.87,-13.54 a 0.26,0.26 0 0 0 -0.48,-0.06 c -0.95,1.7 -1.98,3.53 -3.3,4.94 -7.77,8.29 -13.11,16.86 -18.86,26.26 a 0.58,0.57 33.8 0 0 0.16,0.78 q 3.99,2.8 10.08,3.07"
       id="path756" />
    <path
       stroke="#4d2e16"
       vector-effect="non-scaling-stroke"
       d="m 350.3,545.38 q 5.28,1.38 11.46,0.42 c 9.06,-1.4 16.55,-5.04 24.72,-8.4 q 3.81,-1.57 7.33,-1.38 1.47,0.08 0.95,1.47 l -4.58,12.14"
       id="path758" />
    <path
       stroke="#613f22"
       vector-effect="non-scaling-stroke"
       d="m 390.18,549.63 -2.28,4.02 q -0.33,0.58 0.2,0.99 c 6.1,4.74 15.45,6.29 22.83,5.42 q 12.13,-1.42 21.16,-8.95 a 0.91,0.9 -45.2 0 0 0,-1.39 q -4.27,-3.58 -5.4,-9.62 -0.43,-2.24 1.85,-2.2 c 18.81,0.33 33.49,-15.14 36.04,-33.45 q 0.23,-1.6 1.08,-0.22 7.79,12.7 3.6,27.63"
       id="path760" />
    <path
       stroke="#4d2e16"
       vector-effect="non-scaling-stroke"
       d="m 469.26,531.86 q -5.05,15.21 -20.25,20.12 -3.15,1.02 -6.32,0.86 a 1.9,1.9 0 0 0 -1.81,1.09 c -1.94,4.14 -3.92,8.68 -6.8,12.14 q -9.22,11.11 -22.29,13.69 c -3.14,0.62 -6.41,0.72 -9.56,1.06 a 2.6,2.59 -75.1 0 0 -1.79,1.04 c -12.39,17.14 -31.85,28.65 -52.57,31.56 q -10.99,1.54 -22.94,-1.06 c -6.83,-1.49 -12.99,-4.68 -18.32,-8.87 a 1.75,1.74 -38 0 0 -1.82,-0.22 q -1.32,0.61 -2.42,1.56 -13.75,11.98 -27.11,24.42 a 0.52,0.52 0 0 0 0.28,0.89 q 3.09,0.45 6.47,0.35 13.85,-0.4 26.15,-1.6 18.1,-1.77 42.25,-6.11 10.97,-1.97 20.02,-4.54 20.93,-5.95 37.77,-13.81 22.95,-10.7 43.02,-28.93 a 1.15,1.15 0 0 1 1.92,0.74 c 0.36,3.62 -0.85,8.49 -2.02,11.4 q -0.18,0.46 0.13,0.85 a 0.57,0.57 0 0 0 0.75,0.13 q 18.26,-11.4 32.79,-26.05 c 7.65,-7.71 15.68,-17.66 19.85,-27.92 q 3.57,-8.79 4.72,-15.91 0.92,-5.7 2.16,-11.66 c 0.41,-2.01 0.42,-4.17 0.82,-6.14 q 1.98,-9.84 3.72,-19.77"
       id="path762" />
    <path
       stroke="#613f22"
       vector-effect="non-scaling-stroke"
       d="m 516.06,481.17 7.82,-46.78"
       id="path764" />
    <path
       stroke="#948f88"
       vector-effect="non-scaling-stroke"
       d="m 523.88,434.39 q 2.99,-15.88 5.27,-31.23 0.75,-5.07 1.87,-8.12 c 2.41,-6.56 9.51,-11.09 16.24,-9.84 q 28.15,5.23 56.63,10.21 c 7.75,1.36 16.9,3.46 25.41,4.91"
       id="path766" />
    <path
       stroke="#7e7f76"
       vector-effect="non-scaling-stroke"
       d="m 629.3,400.32 27.53,5.16 a 0.3,0.3 0 0 0 0.33,-0.41 c -4.88,-12.73 -8.63,-27.22 -4.98,-39.92 q 1.78,-6.2 6.09,-13.84 0.3,-0.53 -0.23,-0.82 l -6.19,-3.46"
       id="path768" />
    <path
       stroke="#948f88"
       vector-effect="non-scaling-stroke"
       d="m 651.85,347.03 q -11,-2.71 -21.53,-3.21 a 0.8,0.8 0 0 1 -0.71,-1.09 q 2.06,-5.33 4.86,-10 6.2,-10.34 13.95,-19.09"
       id="path770" />
    <path
       stroke="#613f22"
       vector-effect="non-scaling-stroke"
       d="m 648.42,313.64 q 5.05,-5.51 9.54,-10.92 1.01,-1.21 0.77,-2.22 -3.15,-13.79 -10.56,-24.42 -12.35,-17.72 -32.85,-28.03"
       id="path772" />
    <path
       stroke="#948f88"
       vector-effect="non-scaling-stroke"
       d="m 615.32,248.05 q -1.53,-0.87 -3.72,-1.8 -25.16,-10.66 -52.1,-5.3 -18.76,3.73 -35.54,15.95"
       id="path774" />
    <path
       stroke="#ccb09a"
       vector-effect="non-scaling-stroke"
       d="m 615.32,248.05 0.21,9.72 a 0.51,0.51 0 0 1 -0.66,0.5 c -4.83,-1.47 -9.4,-3.48 -14.28,-4.65 -18.3,-4.39 -39.26,-2.78 -56.45,5.21 q -9.32,4.33 -17.52,10.03 a 0.82,0.82 0 0 1 -1.25,-0.43 q -1.55,-4.97 -1.41,-11.53"
       id="path776" />
    <path
       stroke="#ccb09a"
       vector-effect="non-scaling-stroke"
       d="m 648.42,313.64 q -3.49,-5.41 -6.58,-10.01 -14.02,-20.87 -36.7,-28.89 c -21.54,-7.62 -45.15,-5 -64.21,6.99 q -7.33,4.61 -14.23,10.54 -17.05,14.67 -30.19,30.99 -1.37,1.7 -4.78,8.13"
       id="path778" />
    <path
       stroke="#854f28"
       vector-effect="non-scaling-stroke"
       d="m 491.73,331.39 q -1.96,1.24 -2.26,2.59 -1.21,5.43 -2.75,11.26 -0.96,3.65 -0.89,7.93 a 0.78,0.78 0 0 0 0.76,0.77 q 2.87,0.06 5.21,-1.5 6.22,-4.16 12.93,-9.9 a 1.01,1.01 0 0 1 1.11,-0.14 q 0.83,0.41 0.79,0.96 -0.01,0.1 -0.02,0.01 -0.04,-0.85 0.46,-0.55"
       id="path780" />
    <path
       stroke="#ccb09a"
       vector-effect="non-scaling-stroke"
       d="m 507.07,342.82 q -2.99,21.35 -0.19,42.66 c 1.48,11.25 4.62,21.82 8.97,32.2 q 3.48,8.3 8.03,16.71"
       id="path782" />
    <path
       stroke="#854f28"
       vector-effect="non-scaling-stroke"
       d="m 516.06,481.17 q -5.23,1.14 -10.3,1.7 -3.25,0.36 -5.12,-0.49 -1.66,-0.76 -0.4,-2.12"
       id="path784" />
    <path
       stroke="#613f22"
       vector-effect="non-scaling-stroke"
       d="m 500.24,480.26 q 5.33,-2.97 7.74,-9.53 c 2.92,-7.97 2.95,-16.49 -1.83,-23.2 a 0.88,0.88 0 0 0 -1.55,0.22 q -2.26,6.55 -8.25,11.19 -2.41,1.86 -4.09,3.66 c -4.46,4.76 -3.28,12.61 1.42,17.01"
       id="path786" />
    <path
       stroke="#854f28"
       vector-effect="non-scaling-stroke"
       d="m 493.68,479.61 q -3.66,10.69 -7.59,21.31 c -1.38,3.75 -2.31,7.6 -3.27,11.46 -1.48,5.92 -4.19,10.53 -8.33,14.76 q -1.9,1.95 -3.55,4.31 -0.43,0.63 -1.68,0.41"
       id="path788" />
    <path
       stroke="#854f28"
       vector-effect="non-scaling-stroke"
       d="m 390.18,549.63 q 12.88,-11.25 16.49,-26.65"
       id="path790" />
    <path
       stroke="#854f28"
       vector-effect="non-scaling-stroke"
       d="m 443.8,421.79 -5.33,12.82 a 2.25,2.24 18.8 0 0 1.49,3.02 q 3.04,0.82 6.77,-0.37 5.28,-1.67 6.85,-2.9 7.47,-5.87 9.87,-15.07"
       id="path792" />
    <path
       stroke="#4d2e16"
       vector-effect="non-scaling-stroke"
       d="m 500.24,480.26 q -3.54,0.43 -6.56,-0.65"
       id="path794" />
    <path
       stroke="#eaf0ee"
       vector-effect="non-scaling-stroke"
       d="m 651.85,347.03 q -10.24,15.64 -14.94,23.88 -5.68,9.96 -8.12,23.29 -0.16,0.86 -0.48,1.59 c -0.91,2.06 1.08,2.71 0.99,4.53"
       id="path796" />
    <path
       stroke="#b89e8d"
       vector-effect="non-scaling-stroke"
       d="m 507.07,342.82 5.38,-21.45 q 0.16,-0.65 -0.38,-0.26 -8.93,6.34 -20.34,10.28"
       id="path798" />
    <path
       stroke="#854f28"
       vector-effect="non-scaling-stroke"
       d="m 383.39,526.91 q -5.79,4.46 -10.28,6.96 -9.95,5.54 -22.81,11.51"
       id="path800" />
    <path
       stroke="#67513c"
       vector-effect="non-scaling-stroke"
       d="m 659.6,323.07 -7.85,9.14 q -0.51,0.6 0.26,0.47 15.76,-2.61 33.4,-0.44 5.07,0.62 10.08,2.1 a 0.31,0.31 0 0 0 0.36,-0.45 l -1.59,-2.93"
       id="path802" />
    <path
       stroke="#948f88"
       vector-effect="non-scaling-stroke"
       d="m 694.26,330.96 c -5.06,-9.73 -10.93,-16.88 -20.6,-21.72 a 0.77,0.76 35.2 0 0 -0.9,0.15 l -13.16,13.68"
       id="path804" />
    <path
       stroke="#d2c2b3"
       vector-effect="non-scaling-stroke"
       d="m 694.26,330.96 q -6.38,-3.26 -10.02,-4.51 -11.12,-3.81 -24.64,-3.38"
       id="path806" />
    <path
       stroke="#948f88"
       vector-effect="non-scaling-stroke"
       d="m 755.99,445.88 a 0.36,0.36 0 0 0 -0.16,-0.64 L 567.97,412.53 a 0.36,0.36 0 0 0 -0.35,0.57 l 83.12,113.87 a 0.36,0.36 0 0 0 0.51,0.07 l 104.74,-81.16"
       id="path808" />
    <path
       stroke="#948f88"
       vector-effect="non-scaling-stroke"
       d="m 550.01,425.27 a 0.24,0.24 0 0 0 -0.43,0.11 q -7.62,45.6 -13.24,80.14 -8.41,51.72 -15.41,91.33 -0.28,1.6 1.03,0.64 L 622.3,524.26 a 0.6,0.59 -36.6 0 0 0.13,-0.84 Q 597.16,488.6 571.61,454.14 561.3,440.22 550.01,425.27"
       id="path810" />
    <path
       stroke="#7e7f76"
       vector-effect="non-scaling-stroke"
       d="m 682.8,543.31 51.09,67.84 a 0.36,0.36 0 0 0 0.65,-0.17 l 2.43,-19.52 a 2.1,2.1 0 0 0 -1.04,-2.09 q -10.3,-5.87 -14.49,-17.54 c -2.44,-6.78 -1.56,-17.04 2.42,-22.93 a 0.98,0.97 -42.9 0 0 0.04,-1 c -0.95,-1.73 -2.27,-3.14 -3.09,-4.95 q -4.61,-10.05 0.34,-19.72 c 4.39,-8.57 11.41,-12.51 19.2,-17.63 q 5.67,-3.72 7.64,-6.61 0.95,-1.39 2.03,-6.95"
       id="path812" />
    <path
       stroke="#948f88"
       vector-effect="non-scaling-stroke"
       d="m 750.02,492.04 2.75,-18.39 q 0.19,-1.26 -0.81,-0.47 l -75.81,59.93 q -0.55,0.44 -0.13,1 l 6.78,9.2"
       id="path814" />
    <path
       stroke="#eaf0ee"
       vector-effect="non-scaling-stroke"
       d="m 750.02,492.04 q -8.02,3.61 -12.14,6.56 -12.41,8.88 -24.86,17.7 c -2.91,2.06 -5.63,4.42 -8.47,6.52 -4.09,3.02 -7.58,6.82 -11.78,9.5 q -4.68,3 -9.27,6.29 a 2.33,2.32 58.5 0 0 -0.7,2.96 q 0.66,1.25 0,1.74"
       id="path816" />
    <path
       stroke="#4d2e16"
       vector-effect="non-scaling-stroke"
       d="m 765.64,547.99 q -2.15,1.29 -4.31,2.8 -10.51,7.39 -22.58,9.31 -0.58,0.1 -0.65,0.73 a 0.44,0.43 -72 0 0 0.21,0.42 c 5.1,3.08 10,4.11 16.11,4.79 q 9.31,1.03 16.91,-0.5 a 0.38,0.38 0 0 1 0.38,0.59 c -5.06,7.1 -11.7,13.93 -20.54,15.33 a 0.74,0.74 0 0 0 -0.37,1.3 q 0.51,0.44 1.14,0.67 6.47,2.37 13.24,2.29 a 1.47,1.46 19.2 0 0 1.11,-0.53 c 5.97,-7.23 10.09,-16.84 12.78,-25.93 q 3.52,-11.92 2.2,-26.91"
       id="path818" />
    <path
       stroke="#613f22"
       vector-effect="non-scaling-stroke"
       d="m 781.27,532.35 q 0.32,-11.66 -4.54,-22.19 -1.94,-4.2 -4.3,-8.35 a 0.57,0.57 0 0 0 -1.01,0.05 c -1.77,4 -4,8.1 -6.79,11.52 q -10.32,12.63 -25.95,18.44 a 0.62,0.62 0 0 0 -0.16,1.08 c 9.38,7.01 23.62,6.8 34.47,3.99 q 0.81,-0.2 0.47,0.56 -2.69,6 -7.82,10.54"
       id="path820" />
    <path
       stroke="#854f28"
       vector-effect="non-scaling-stroke"
       d="m 781.27,532.35 q -2.91,8.03 -7.53,14.12 -2.01,2.65 -4.8,4.4 a 1.31,1.3 62.9 0 1 -1.9,-0.62 q -0.58,-1.39 -1.4,-2.26"
       id="path822" />
    <path
       stroke="#7e7f76"
       vector-effect="non-scaling-stroke"
       d="m 578.88,581.65 -36.02,27.3 q -0.69,0.52 0.17,0.6 l 176.7,16.28 q 1.92,0.18 0.77,-1.36 l -20.06,-26.61"
       id="path824" />
    <path
       stroke="#948f88"
       vector-effect="non-scaling-stroke"
       d="m 700.44,597.86 -39.9,-51.53 q -0.48,-0.61 -0.96,0 c -3.1,3.88 -8.3,7.99 -13.3,7.06 -5.3,-0.98 -9.81,-8.55 -12.38,-12.83 q -0.39,-0.65 -0.99,-0.18 -26.6,21.21 -54.03,41.27"
       id="path826" />
    <path
       stroke="#eaf0ee"
       vector-effect="non-scaling-stroke"
       d="m 700.44,597.86 q -1.03,0.82 -2.96,-0.17 -1.55,-0.78 -2.63,-0.95 -15.77,-2.43 -31.66,-3.83 c -6.92,-0.61 -13.79,-1.4 -20.69,-2.02 q -8.49,-0.76 -15.59,-1.65 -18.35,-2.31 -36.67,-4.73 -5.01,-0.66 -10.63,-1.58 -0.52,-0.09 -0.67,-0.59 -0.09,-0.3 -0.06,-0.69"
       id="path828" />
    <path
       stroke="#4d2e16"
       vector-effect="non-scaling-stroke"
       d="m 358.18,567.79 c -7.5,0.83 -13.35,-1.13 -19.77,-4.31 a 1.36,1.35 38.6 0 0 -1.47,0.16 q -6.25,5.03 -12.51,10.21 -5.45,4.51 -8.98,10.33 a 0.73,0.72 -59.3 0 0 0.25,1.01 c 7.76,4.49 15.33,7.04 24.66,7.15 q 17.46,0.21 32.81,-8.87 c 4.9,-2.9 8.79,-6.37 13.06,-9.91 a 0.67,0.67 0 0 0 0.03,-1.01 q -6.02,-5.48 -5.32,-12.9 0.22,-2.31 -1.51,-0.75 -8.21,7.44 -21.25,8.89"
       id="path830" />
    <path
       stroke="#67513c"
       vector-effect="non-scaling-stroke"
       d="m 427.57,628.54 q -14.28,6.24 -29.42,10.51 a 0.45,0.45 0 0 0 -0.2,0.74 q 2.33,2.46 5.22,4.54 18.22,13.13 37.71,21.56 30.99,13.41 65.96,13.76 22.87,0.23 46.01,-5.1 31.33,-7.22 57.39,-25.81 7.45,-5.32 11.9,-8.75 0.76,-0.58 -0.19,-0.65 l -35.22,-2.85"
       id="path832" />
    <path
       stroke="#7e7f76"
       vector-effect="non-scaling-stroke"
       d="M 586.73,636.49 563.57,634.6"
       id="path834" />
    <path
       stroke="#67513c"
       vector-effect="non-scaling-stroke"
       d="m 563.57,634.6 -6.73,-0.56"
       id="path836" />
    <path
       stroke="#7e7f76"
       vector-effect="non-scaling-stroke"
       d="m 556.84,634.04 q -1.81,-0.38 -5.59,-0.71 -19.88,-1.72 -39.18,-3.35 c -8.34,-0.7 -15.16,-1.48 -17.38,-10.59 q -0.77,-3.15 0.82,-12.59 2.01,-11.87 3.75,-23.47 a 0.36,0.35 -0.6 0 0 -0.41,-0.4 q -0.42,0.07 -0.67,0.43 -1.61,2.3 -3.49,4.06 c -10.49,9.79 -21.53,17.46 -34.17,24.9 q -8.96,5.28 -16.06,8.89 -8.16,4.15 -16.89,7.33"
       id="path838" />
    <path
       stroke="#bdb2a2"
       vector-effect="non-scaling-stroke"
       d="M 556.84,634.04 C 541.77,646.87 524.81,655.1 506,661.47 q -20.79,7.03 -44.01,4.98 -0.35,-0.03 -0.61,-0.26 a 0.22,0.22 0 0 1 0.1,-0.38 c 7.79,-1.99 16.06,-5.36 23.01,-9.36 q 6.43,-3.7 13.19,-7.65 1.09,-0.63 -0.17,-0.63 -24.99,-0.03 -48.76,-8.39 -10.55,-3.71 -21.18,-11.24"
       id="path840" />
    <path
       stroke="#bdb2a2"
       vector-effect="non-scaling-stroke"
       d="m 563.57,634.6 q -4.48,11.49 -12.78,19.28 -1.32,1.24 0.41,0.7 15.28,-4.76 28.67,-13.94 1.06,-0.73 3.48,-1.96 1.75,-0.89 3.38,-2.19"
       id="path842" />
    <path
       stroke="#613f22"
       vector-effect="non-scaling-stroke"
       d="m 490.88,372.36 c -4.49,1.64 -8.21,2.39 -9.02,8.07 -1.71,11.98 11.86,12.18 13.09,1.64 q 0.73,-6.19 0.08,-11.82 -0.09,-0.79 -0.72,-0.3 c -1.2,0.94 -1.92,1.86 -3.43,2.41"
       id="path846" />
    <path
       stroke="#613f22"
       vector-effect="non-scaling-stroke"
       d="m 502.63,407.28 c -2.11,5.75 -10.16,6.71 -13.88,11.19 q -4.18,5.04 -3.35,11.92 c 1.07,8.82 11.03,7.71 14.92,1.96 q 5.99,-8.86 4.88,-19.71 -0.33,-3.2 -1.41,-5.75 a 0.51,0.51 0 0 0 -0.84,-0.15 q -0.21,0.24 -0.32,0.54"
       id="path848" />
    <path
       stroke="#613f22"
       vector-effect="non-scaling-stroke"
       d="m 465.81,453.61 c -2.82,7.15 -7.79,14.28 -14.73,17.31 q -7.67,3.35 -8.36,11.66 c -0.85,10.22 8.65,11.88 15.69,7.52 6.22,-3.86 9.63,-10.93 11.31,-17.8 q 2.14,-8.71 -1.36,-17.01 -0.44,-1.05 -1.19,-1.91 -0.87,-1 -1.36,0.23"
       id="path850" />
    <path
       stroke="#948f88"
       vector-effect="non-scaling-stroke"
       d="m 571.881,336.9919 a 21.96,21.39 87.1 0 0 20.2516,-23.0141 21.96,21.39 87.1 0 0 -22.4736,-20.8497 21.96,21.39 87.1 0 0 -20.2516,23.0141 21.96,21.39 87.1 0 0 22.4736,20.8497"
       id="path852" />
    <path
       stroke="#948f88"
       vector-effect="non-scaling-stroke"
       d="m 571.8106,308.8609 a 5.31,4.92 82.2 0 0 4.1539,-5.9286 5.31,4.92 82.2 0 0 -5.5951,-4.5932 5.31,4.92 82.2 0 0 -4.1539,5.9286 5.31,4.92 82.2 0 0 5.5951,4.5932"
       id="path854" />
    <path
       stroke="#4d2e16"
       vector-effect="non-scaling-stroke"
       d="m 506.95,494.04 c -0.46,-1.18 -0.38,-2.49 -0.97,-3.67 a 0.57,0.56 -44.9 0 0 -1.01,0 c -1.04,2.05 -0.9,4.11 -1.96,6.14 -2.38,4.6 -5.46,9.88 -9.86,12.67 -2.86,1.82 -7.03,4.05 -7.51,7.72 -0.82,6.36 1.69,15.7 9.6,15.69 6.2,-0.01 11.71,-9.96 12.63,-14.74 1.43,-7.5 2.01,-16.27 -0.92,-23.81"
       id="path856" />
    <path
       stroke="#ccb09a"
       vector-effect="non-scaling-stroke"
       d="m 770.95,507.27 -9.28,15.75 a 0.12,0.12 0 0 0 0.04,0.16 l 0.04,0.03 a 8.27,6.43 -59.5 0 0 9.74,-3.86 l 1.01,-1.71 a 8.27,6.43 -59.5 0 0 -1.35,-10.39 l -0.04,-0.02 a 0.12,0.12 0 0 0 -0.16,0.04"
       id="path858" />
  </g>
  <g
     id="g1083"
     style="display:inline"
     transform="translate(-188.20699,-186.48157)">
    <path
       fill="#281e10"
       d="m 644.09,758.27 q -4.83,4.09 -9.61,0.78 -1.11,-0.76 -2.26,-1.42 -0.74,-0.42 -0.31,0.3 c 3.22,5.46 7.91,13.36 1.58,18.39 -7.97,6.35 -13.81,-6.13 -16.86,-10.19 q -1.84,-2.46 -3.91,-3.62 -6.98,-6.5 -16.73,-9.27 c -10.54,-3 -23.61,-4 -32.87,2.54 l -3.05,2.23 a 1.02,1.02 0 0 0 0.02,1.65 c 1.99,1.4 4.24,2.93 5.26,5.21 q 2.01,4.48 -0.02,8.66 c -3.61,7.42 -11.12,2.99 -15.34,-0.52 q -1.94,-1.62 -0.83,0.65 c 2.96,6.04 7.83,17.17 -0.38,21.66 -4.13,2.26 -8.58,0.38 -10.8,-3.55 q -3.95,-7.01 -8.51,-12.62 c -6.18,-7.58 -14.76,-12.55 -24.04,-15.07 q -25.61,-6.93 -48.46,6.82 c -4.02,2.43 -7.58,5.99 -11.48,8.87 -3.93,2.91 -9.24,3.55 -12.19,-0.98 q -1.85,-2.84 -0.95,-6.7 c 1.42,-6.11 5.06,-10.55 9.4,-14.91 q 2.37,-2.25 5.35,-4.57 9.14,-7.1 20.74,-8.66 a 0.39,0.39 0 0 0 0.3,-0.56 q -4.36,-8.73 -9.8,-17.55 -10.69,-17.32 -20.66,-32.73 -1.54,-2.38 -4.17,-3.49 -36.5,-15.3 -64.74,-43.08 a 1.68,1.68 0 0 0 -1.56,-0.44 q -23.51,5.42 -47.63,7.4 -29.9,2.46 -57.76,1.58 -16.32,-0.51 -32,-2.94 -5.55,-0.86 -8.64,-4.85 c -4.83,-6.23 -0.27,-11.5 5.01,-14.85 q 25.97,-16.47 48,-38.74 c 13.39,-13.54 24.07,-28.67 33.93,-45.59 7.99,-13.7 15.46,-27.3 23.06,-41.62 q 4.66,-8.77 9.64,-17.26 14.49,-24.71 23.99,-38.37 11.46,-16.5 23.99,-31.41 c 14.15,-16.86 29.93,-31.83 45.75,-46.39 q 1.6,-1.47 5.7,-6.54 9.06,-11.18 11.92,-23.63 2.81,-12.23 5.34,-24.01 5.33,-24.77 20.99,-48.9 c 2.96,-4.55 6.63,-8.82 10.15,-12.9 q 24.88,-28.85 62.09,-37.68 8.17,-1.94 20.19,-2.56 33.22,-1.73 61.13,14.17 c 24.62,14.01 43.88,38.96 49.03,67.34 q 0.27,1.5 1.5,2.35 c 5.97,4.1 11.59,8.67 15.89,14.62 q 11.24,15.59 12.2,34.3 0.06,1.26 -0.13,2.45 a 1.35,1.34 -72.5 0 1 -1.91,1 c -12.71,-6.2 -27.38,-6.75 -33.89,8.52 -7.02,16.45 4.01,34.57 12.15,48.45 a 3.06,3.05 -9.9 0 0 2.11,1.48 q 42.38,7.73 76.96,14.22 c 7.91,1.48 13.66,7.77 12.49,16.13 q -2.09,14.81 -5.4,34.27 -0.14,0.83 0.39,1.49 c 2.62,3.28 5.51,6.45 7.85,9.83 q 21.8,31.48 13.86,69.57 -1.98,9.49 -6.15,18.64 -11.27,24.75 -34.35,38.05 a 2.05,2.04 -10.7 0 0 -0.99,1.45 q -1.71,11.28 -3.15,21.83 c -0.96,7.05 -6.14,12.34 -13.56,11.7 q -42.1,-3.57 -82.07,-6.31 -1.49,-0.1 -2.52,0.98 -5.65,5.88 -11.61,11.6 c -20.37,19.57 -47.06,33.42 -73.98,40.75 q -11.47,3.12 -21.77,5.12 a 0.3,0.3 0 0 0 -0.13,0.52 q 17.24,14.44 33.49,29.17 0.38,0.34 0.89,0.33 3.44,-0.05 6.74,-0.15 c 19.5,-0.56 39.01,3.52 54.84,14.29 2.36,1.61 4.31,3.37 4.95,6.32 q 0.89,4.03 -1.7,6.95 z M 523.96,256.9 q -0.85,0.53 -1.7,0.89 -0.96,0.42 -1.79,1.01 c -15.32,11.11 -27.19,28.71 -34.09,46.25 q -5.32,13.54 -7.52,24.27 c -4.06,19.8 -8.46,38.06 -21.41,53.59 q -7.7,9.23 -16.09,17.26 a 0.48,0.48 0 0 0 0.12,0.77 c 9.73,4.71 21.99,1.45 30.73,-4.61 q 0.47,-0.32 1.01,-0.13 a 0.34,0.34 0 0 1 0.23,0.38 q -1.25,8.1 -4.79,15.57 -1.66,3.49 -5.21,7.14 -9.98,4.86 -19.65,2.5 -8.98,-2 -13.79,-9.26 a 0.72,0.71 50.5 0 0 -1.11,-0.11 q -14.38,14.64 -27.59,30.9 -2.83,3.5 -5.89,7.89 a 0.67,0.67 0 0 0 0.24,0.97 q 2.81,1.5 6.21,1.78 14.12,1.19 25.62,-7.01 a 0.55,0.55 0 0 1 0.87,0.44 q 0.22,15.27 -12.07,22.39 c -10.04,5.82 -21.36,3.5 -30.8,-2.56 a 0.82,0.82 0 0 0 -1.12,0.23 q -4.08,6.03 -7.61,11.26 c -4.28,6.35 -7.57,13.23 -11.48,19.77 q -0.35,0.6 0.28,0.88 c 1.62,0.71 3.3,1.58 4.7,2.68 9.01,7.11 22.58,7.56 32.58,2.17 7.31,-3.93 11.78,-9.51 16.28,-16.25 a 1.02,1.02 0 0 1 1.85,0.35 q 2.5,11.4 -2.75,21.44 -3.55,6.81 -11.55,13.23 -6.62,2.55 -12.41,3.82 -6.01,1.33 -10.87,0.11 c -3.43,-0.99 -6.86,-1.5 -9.82,-2.98 q -8.37,-4.16 -10.87,-13.54 a 0.26,0.26 0 0 0 -0.48,-0.06 c -0.95,1.7 -1.98,3.53 -3.3,4.94 -7.77,8.29 -13.11,16.86 -18.86,26.26 a 0.58,0.57 33.8 0 0 0.16,0.78 q 3.99,2.8 10.08,3.07 5.28,1.38 11.46,0.42 c 9.06,-1.4 16.55,-5.04 24.72,-8.4 q 3.81,-1.57 7.33,-1.38 1.47,0.08 0.95,1.47 l -4.58,12.14 -2.28,4.02 q -0.33,0.58 0.2,0.99 c 6.1,4.74 15.45,6.29 22.83,5.42 q 12.13,-1.42 21.16,-8.95 a 0.91,0.9 -45.2 0 0 0,-1.39 q -4.27,-3.58 -5.4,-9.62 -0.43,-2.24 1.85,-2.2 c 18.81,0.33 33.49,-15.14 36.04,-33.45 q 0.23,-1.6 1.08,-0.22 7.79,12.7 3.6,27.63 -5.05,15.21 -20.25,20.12 -3.15,1.02 -6.32,0.86 a 1.9,1.9 0 0 0 -1.81,1.09 c -1.94,4.14 -3.92,8.68 -6.8,12.14 q -9.22,11.11 -22.29,13.69 c -3.14,0.62 -6.41,0.72 -9.56,1.06 a 2.6,2.59 -75.1 0 0 -1.79,1.04 c -12.39,17.14 -31.85,28.65 -52.57,31.56 q -10.99,1.54 -22.94,-1.06 c -6.83,-1.49 -12.99,-4.68 -18.32,-8.87 a 1.75,1.74 -38 0 0 -1.82,-0.22 q -1.32,0.61 -2.42,1.56 -13.75,11.98 -27.11,24.42 a 0.52,0.52 0 0 0 0.28,0.89 q 3.09,0.45 6.47,0.35 13.85,-0.4 26.15,-1.6 18.1,-1.77 42.25,-6.11 10.97,-1.97 20.02,-4.54 20.93,-5.95 37.77,-13.81 22.95,-10.7 43.02,-28.93 a 1.15,1.15 0 0 1 1.92,0.74 c 0.36,3.62 -0.85,8.49 -2.02,11.4 q -0.18,0.46 0.13,0.85 a 0.57,0.57 0 0 0 0.75,0.13 q 18.26,-11.4 32.79,-26.05 c 7.65,-7.71 15.68,-17.66 19.85,-27.92 q 3.57,-8.79 4.72,-15.91 0.92,-5.7 2.16,-11.66 c 0.41,-2.01 0.42,-4.17 0.82,-6.14 q 1.98,-9.84 3.72,-19.77 l 7.82,-46.78 q 2.99,-15.88 5.27,-31.23 0.75,-5.07 1.87,-8.12 c 2.41,-6.56 9.51,-11.09 16.24,-9.84 q 28.15,5.23 56.63,10.21 c 7.75,1.36 16.9,3.46 25.41,4.91 l 27.53,5.16 a 0.3,0.3 0 0 0 0.33,-0.41 c -4.88,-12.73 -8.63,-27.22 -4.98,-39.92 q 1.78,-6.2 6.09,-13.84 0.3,-0.53 -0.23,-0.82 l -6.19,-3.46 q -11,-2.71 -21.53,-3.21 a 0.8,0.8 0 0 1 -0.71,-1.09 q 2.06,-5.33 4.86,-10 6.2,-10.34 13.95,-19.09 5.05,-5.51 9.54,-10.92 1.01,-1.21 0.77,-2.22 -3.15,-13.79 -10.56,-24.42 -12.35,-17.72 -32.85,-28.03 -1.53,-0.87 -3.72,-1.8 -25.16,-10.66 -52.1,-5.3 -18.76,3.73 -35.54,15.95 z m 135.64,66.17 -7.85,9.14 q -0.51,0.6 0.26,0.47 15.76,-2.61 33.4,-0.44 5.07,0.62 10.08,2.1 a 0.31,0.31 0 0 0 0.36,-0.45 l -1.59,-2.93 c -5.06,-9.73 -10.93,-16.88 -20.6,-21.72 a 0.77,0.76 35.2 0 0 -0.9,0.15 z m 96.39,122.81 a 0.36,0.36 0 0 0 -0.16,-0.64 L 567.97,412.53 a 0.36,0.36 0 0 0 -0.35,0.57 l 83.12,113.87 a 0.36,0.36 0 0 0 0.51,0.07 z M 550.01,425.27 a 0.24,0.24 0 0 0 -0.43,0.11 q -7.62,45.6 -13.24,80.14 -8.41,51.72 -15.41,91.33 -0.28,1.6 1.03,0.64 L 622.3,524.26 a 0.6,0.59 -36.6 0 0 0.13,-0.84 Q 597.16,488.6 571.61,454.14 561.3,440.22 550.01,425.27 Z m 132.79,118.04 51.09,67.84 a 0.36,0.36 0 0 0 0.65,-0.17 l 2.43,-19.52 a 2.1,2.1 0 0 0 -1.04,-2.09 q -10.3,-5.87 -14.49,-17.54 c -2.44,-6.78 -1.56,-17.04 2.42,-22.93 a 0.98,0.97 -42.9 0 0 0.04,-1 c -0.95,-1.73 -2.27,-3.14 -3.09,-4.95 q -4.61,-10.05 0.34,-19.72 c 4.39,-8.57 11.41,-12.51 19.2,-17.63 q 5.67,-3.72 7.64,-6.61 0.95,-1.39 2.03,-6.95 l 2.75,-18.39 q 0.19,-1.26 -0.81,-0.47 l -75.81,59.93 q -0.55,0.44 -0.13,1 z m 82.84,4.68 q -2.15,1.29 -4.31,2.8 -10.51,7.39 -22.58,9.31 -0.58,0.1 -0.65,0.73 a 0.44,0.43 -72 0 0 0.21,0.42 c 5.1,3.08 10,4.11 16.11,4.79 q 9.31,1.03 16.91,-0.5 a 0.38,0.38 0 0 1 0.38,0.59 c -5.06,7.1 -11.7,13.93 -20.54,15.33 a 0.74,0.74 0 0 0 -0.37,1.3 q 0.51,0.44 1.14,0.67 6.47,2.37 13.24,2.29 a 1.47,1.46 19.2 0 0 1.11,-0.53 c 5.97,-7.23 10.09,-16.84 12.78,-25.93 q 3.52,-11.92 2.2,-26.91 0.32,-11.66 -4.54,-22.19 -1.94,-4.2 -4.3,-8.35 a 0.57,0.57 0 0 0 -1.01,0.05 c -1.77,4 -4,8.1 -6.79,11.52 q -10.32,12.63 -25.95,18.44 a 0.62,0.62 0 0 0 -0.16,1.08 c 9.38,7.01 23.62,6.8 34.47,3.99 q 0.81,-0.2 0.47,0.56 -2.69,6 -7.82,10.54 z m -186.76,33.66 -36.02,27.3 q -0.69,0.52 0.17,0.6 l 176.7,16.28 q 1.92,0.18 0.77,-1.36 l -20.06,-26.61 -39.9,-51.53 q -0.48,-0.61 -0.96,0 c -3.1,3.88 -8.3,7.99 -13.3,7.06 -5.3,-0.98 -9.81,-8.55 -12.38,-12.83 q -0.39,-0.65 -0.99,-0.18 -26.6,21.21 -54.03,41.27 z m -220.7,-13.86 c -7.5,0.83 -13.35,-1.13 -19.77,-4.31 a 1.36,1.35 38.6 0 0 -1.47,0.16 q -6.25,5.03 -12.51,10.21 -5.45,4.51 -8.98,10.33 a 0.73,0.72 -59.3 0 0 0.25,1.01 c 7.76,4.49 15.33,7.04 24.66,7.15 q 17.46,0.21 32.81,-8.87 c 4.9,-2.9 8.79,-6.37 13.06,-9.91 a 0.67,0.67 0 0 0 0.03,-1.01 q -6.02,-5.48 -5.32,-12.9 0.22,-2.31 -1.51,-0.75 -8.21,7.44 -21.25,8.89 z m 69.39,60.75 q -14.28,6.24 -29.42,10.51 a 0.45,0.45 0 0 0 -0.2,0.74 q 2.33,2.46 5.22,4.54 18.22,13.13 37.71,21.56 30.99,13.41 65.96,13.76 22.87,0.23 46.01,-5.1 31.33,-7.22 57.39,-25.81 7.45,-5.32 11.9,-8.75 0.76,-0.58 -0.19,-0.65 l -35.22,-2.85 -23.16,-1.89 -6.73,-0.56 q -1.81,-0.38 -5.59,-0.71 -19.88,-1.72 -39.18,-3.35 c -8.34,-0.7 -15.16,-1.48 -17.38,-10.59 q -0.77,-3.15 0.82,-12.59 2.01,-11.87 3.75,-23.47 a 0.36,0.35 -0.6 0 0 -0.41,-0.4 q -0.42,0.07 -0.67,0.43 -1.61,2.3 -3.49,4.06 c -10.49,9.79 -21.53,17.46 -34.17,24.9 q -8.96,5.28 -16.06,8.89 -8.16,4.15 -16.89,7.33 z m 45.83,72.9 a 0.15,0.15 0 0 0 -0.15,0.21 q 1.48,2.94 3.28,5.7 10.74,16.47 20.91,33 0.31,0.51 0.92,0.47 12.65,-0.96 24.03,1.88 3.19,0.79 6.22,2.33 0.45,0.23 0.84,-0.09 7.69,-6.19 17.67,-9.86 a 0.48,0.48 0 0 0 0.17,-0.79 q -3.59,-3.55 -6.88,-6.26 -12.81,-10.57 -27.54,-23.13 -0.89,-0.76 -2.01,-0.78 -17.1,-0.17 -37.46,-2.68 z"
       id="path864"
       style="display:inline" />
    <path
       fill="#ffffff"
       d="m 615.32,248.05 0.21,9.72 a 0.51,0.51 0 0 1 -0.66,0.5 c -4.83,-1.47 -9.4,-3.48 -14.28,-4.65 -18.3,-4.39 -39.26,-2.78 -56.45,5.21 q -9.32,4.33 -17.52,10.03 a 0.82,0.82 0 0 1 -1.25,-0.43 q -1.55,-4.97 -1.41,-11.53 16.78,-12.22 35.54,-15.95 26.94,-5.36 52.1,5.3 2.19,0.93 3.72,1.8 z"
       id="path866" />
    <path
       fill="#996034"
       d="m 615.32,248.05 q 20.5,10.31 32.85,28.03 7.41,10.63 10.56,24.42 0.24,1.01 -0.77,2.22 -4.49,5.41 -9.54,10.92 -3.49,-5.41 -6.58,-10.01 -14.02,-20.87 -36.7,-28.89 c -21.54,-7.62 -45.15,-5 -64.21,6.99 q -7.33,4.61 -14.23,10.54 -17.05,14.67 -30.19,30.99 -1.37,1.7 -4.78,8.13 -1.96,1.24 -2.26,2.59 -1.21,5.43 -2.75,11.26 -0.96,3.65 -0.89,7.93 a 0.78,0.78 0 0 0 0.76,0.77 q 2.87,0.06 5.21,-1.5 6.22,-4.16 12.93,-9.9 a 1.01,1.01 0 0 1 1.11,-0.14 q 0.83,0.41 0.79,0.96 -0.01,0.1 -0.02,0.01 -0.04,-0.85 0.46,-0.55 -2.99,21.35 -0.19,42.66 c 1.48,11.25 4.62,21.82 8.97,32.2 q 3.48,8.3 8.03,16.71 l -7.82,46.78 q -5.23,1.14 -10.3,1.7 -3.25,0.36 -5.12,-0.49 -1.66,-0.76 -0.4,-2.12 5.33,-2.97 7.74,-9.53 c 2.92,-7.97 2.95,-16.49 -1.83,-23.2 a 0.88,0.88 0 0 0 -1.55,0.22 q -2.26,6.55 -8.25,11.19 -2.41,1.86 -4.09,3.66 c -4.46,4.76 -3.28,12.61 1.42,17.01 q -3.66,10.69 -7.59,21.31 c -1.38,3.75 -2.31,7.6 -3.27,11.46 -1.48,5.92 -4.19,10.53 -8.33,14.76 q -1.9,1.95 -3.55,4.31 -0.43,0.63 -1.68,0.41 4.19,-14.93 -3.6,-27.63 -0.85,-1.38 -1.08,0.22 c -2.55,18.31 -17.23,33.78 -36.04,33.45 q -2.28,-0.04 -1.85,2.2 1.13,6.04 5.4,9.62 a 0.91,0.9 -45.2 0 1 0,1.39 q -9.03,7.53 -21.16,8.95 c -7.38,0.87 -16.73,-0.68 -22.83,-5.42 q -0.53,-0.41 -0.2,-0.99 l 2.28,-4.02 q 12.88,-11.25 16.49,-26.65 8,-6.42 11.55,-13.23 5.25,-10.04 2.75,-21.44 a 1.02,1.02 0 0 0 -1.85,-0.35 c -4.5,6.74 -8.97,12.32 -16.28,16.25 -10,5.39 -23.57,4.94 -32.58,-2.17 -1.4,-1.1 -3.08,-1.97 -4.7,-2.68 q -0.63,-0.28 -0.28,-0.88 c 3.91,-6.54 7.2,-13.42 11.48,-19.77 q 3.53,-5.23 7.61,-11.26 a 0.82,0.82 0 0 1 1.12,-0.23 c 9.44,6.06 20.76,8.38 30.8,2.56 q 12.29,-7.12 12.07,-22.39 a 0.55,0.55 0 0 0 -0.87,-0.44 q -11.5,8.2 -25.62,7.01 -3.4,-0.28 -6.21,-1.78 a 0.67,0.67 0 0 1 -0.24,-0.97 q 3.06,-4.39 5.89,-7.89 13.21,-16.26 27.59,-30.9 a 0.72,0.71 50.5 0 1 1.11,0.11 q 4.81,7.26 13.79,9.26 l -5.33,12.82 a 2.25,2.24 18.8 0 0 1.49,3.02 q 3.04,0.82 6.77,-0.37 5.28,-1.67 6.85,-2.9 7.47,-5.87 9.87,-15.07 3.55,-3.65 5.21,-7.14 3.54,-7.47 4.79,-15.57 a 0.34,0.34 0 0 0 -0.23,-0.38 q -0.54,-0.19 -1.01,0.13 c -8.74,6.06 -21,9.32 -30.73,4.61 a 0.48,0.48 0 0 1 -0.12,-0.77 q 8.39,-8.03 16.09,-17.26 c 12.95,-15.53 17.35,-33.79 21.41,-53.59 q 2.2,-10.73 7.52,-24.27 c 6.9,-17.54 18.77,-35.14 34.09,-46.25 q 0.83,-0.59 1.79,-1.01 0.85,-0.36 1.7,-0.89 -0.14,6.56 1.41,11.53 a 0.82,0.82 0 0 0 1.25,0.43 q 8.2,-5.7 17.52,-10.03 c 17.19,-7.99 38.15,-9.6 56.45,-5.21 4.88,1.17 9.45,3.18 14.28,4.65 a 0.51,0.51 0 0 0 0.66,-0.5 z M 490.88,372.36 c -4.49,1.64 -8.21,2.39 -9.02,8.07 -1.71,11.98 11.86,12.18 13.09,1.64 q 0.73,-6.19 0.08,-11.82 -0.09,-0.79 -0.72,-0.3 c -1.2,0.94 -1.92,1.86 -3.43,2.41 z m 11.75,34.92 c -2.11,5.75 -10.16,6.71 -13.88,11.19 q -4.18,5.04 -3.35,11.92 c 1.07,8.82 11.03,7.71 14.92,1.96 q 5.99,-8.86 4.88,-19.71 -0.33,-3.2 -1.41,-5.75 a 0.51,0.51 0 0 0 -0.84,-0.15 q -0.21,0.24 -0.32,0.54 z m -36.82,46.33 c -2.82,7.15 -7.79,14.28 -14.73,17.31 q -7.67,3.35 -8.36,11.66 c -0.85,10.22 8.65,11.88 15.69,7.52 6.22,-3.86 9.63,-10.93 11.31,-17.8 q 2.14,-8.71 -1.36,-17.01 -0.44,-1.05 -1.19,-1.91 -0.87,-1 -1.36,0.23 z"
       id="path868" />
    <path
       fill="#ffffff"
       d="m 648.42,313.64 q -7.75,8.75 -13.95,19.09 -2.8,4.67 -4.86,10 a 0.8,0.8 0 0 0 0.71,1.09 q 10.53,0.5 21.53,3.21 -10.24,15.64 -14.94,23.88 -5.68,9.96 -8.12,23.29 -0.16,0.86 -0.48,1.59 c -0.91,2.06 1.08,2.71 0.99,4.53 -8.51,-1.45 -17.66,-3.55 -25.41,-4.91 q -28.48,-4.98 -56.63,-10.21 c -6.73,-1.25 -13.83,3.28 -16.24,9.84 q -1.12,3.05 -1.87,8.12 -2.28,15.35 -5.27,31.23 -4.55,-8.41 -8.03,-16.71 c -4.35,-10.38 -7.49,-20.95 -8.97,-32.2 q -2.8,-21.31 0.19,-42.66 l 5.38,-21.45 q 0.16,-0.65 -0.38,-0.26 -8.93,6.34 -20.34,10.28 3.41,-6.43 4.78,-8.13 13.14,-16.32 30.19,-30.99 6.9,-5.93 14.23,-10.54 c 19.06,-11.99 42.67,-14.61 64.21,-6.99 q 22.68,8.02 36.7,28.89 3.09,4.6 6.58,10.01 z m -76.539,23.3519 a 21.96,21.39 87.1 0 0 20.2516,-23.0141 21.96,21.39 87.1 0 0 -22.4736,-20.8497 21.96,21.39 87.1 0 0 -20.2516,23.0141 21.96,21.39 87.1 0 0 22.4736,20.8497 z"
       id="path870" />
    <path
       fill="#281e10"
       d="m 571.881,336.9919 a 21.96,21.39 87.1 0 1 -22.4736,-20.8497 21.96,21.39 87.1 0 1 20.2516,-23.0141 21.96,21.39 87.1 0 1 22.4736,20.8497 21.96,21.39 87.1 0 1 -20.2516,23.0141 z m -0.0704,-28.131 a 5.31,4.92 82.2 0 0 4.1539,-5.9286 5.31,4.92 82.2 0 0 -5.5951,-4.5932 5.31,4.92 82.2 0 0 -4.1539,5.9286 5.31,4.92 82.2 0 0 5.5951,4.5932 z"
       id="path872" />
    <ellipse
       fill="#ffffff"
       cx="0"
       cy="0"
       transform="rotate(82.2,111.53339,479.12638)"
       rx="5.3099999"
       ry="4.9200001"
       id="ellipse874" />
    <path
       fill="#ffffff"
       d="m 694.26,330.96 q -6.38,-3.26 -10.02,-4.51 -11.12,-3.81 -24.64,-3.38 l 13.16,-13.68 a 0.77,0.76 35.2 0 1 0.9,-0.15 c 9.67,4.84 15.54,11.99 20.6,21.72 z"
       id="path876" />
    <path
       fill="#713d1b"
       d="m 507.07,342.82 q -0.5,-0.3 -0.46,0.55 0.01,0.09 0.02,-0.01 0.04,-0.55 -0.79,-0.96 a 1.01,1.01 0 0 0 -1.11,0.14 q -6.71,5.74 -12.93,9.9 -2.34,1.56 -5.21,1.5 a 0.78,0.78 0 0 1 -0.76,-0.77 q -0.07,-4.28 0.89,-7.93 1.54,-5.83 2.75,-11.26 0.3,-1.35 2.26,-2.59 11.41,-3.94 20.34,-10.28 0.54,-0.39 0.38,0.26 z"
       id="path878" />
    <path
       fill="#a58467"
       d="m 659.6,323.07 q 13.52,-0.43 24.64,3.38 3.64,1.25 10.02,4.51 l 1.59,2.93 a 0.31,0.31 0 0 1 -0.36,0.45 q -5.01,-1.48 -10.08,-2.1 -17.64,-2.17 -33.4,0.44 -0.77,0.13 -0.26,-0.47 z"
       id="path880" />
    <path
       fill="#d4e0dc"
       d="m 651.85,347.03 6.19,3.46 q 0.53,0.29 0.23,0.82 -4.31,7.64 -6.09,13.84 c -3.65,12.7 0.1,27.19 4.98,39.92 a 0.3,0.3 0 0 1 -0.33,0.41 l -27.53,-5.16 c 0.09,-1.82 -1.9,-2.47 -0.99,-4.53 q 0.32,-0.73 0.48,-1.59 2.44,-13.33 8.12,-23.29 4.7,-8.24 14.94,-23.88 z"
       id="path882" />
    <path
       fill="#281e10"
       d="m 481.86,380.43 c 0.81,-5.68 4.53,-6.43 9.02,-8.07 1.51,-0.55 2.23,-1.47 3.43,-2.41 q 0.63,-0.49 0.72,0.3 0.65,5.63 -0.08,11.82 c -1.23,10.54 -14.8,10.34 -13.09,-1.64 z"
       id="path884" />
    <path
       fill="#281e10"
       d="m 502.63,407.28 q 0.11,-0.3 0.32,-0.54 a 0.51,0.51 0 0 1 0.84,0.15 q 1.08,2.55 1.41,5.75 1.11,10.85 -4.88,19.71 c -3.89,5.75 -13.85,6.86 -14.92,-1.96 q -0.83,-6.88 3.35,-11.92 c 3.72,-4.48 11.77,-5.44 13.88,-11.19 z"
       id="path886" />
    <path
       fill="#ffffff"
       d="m 755.99,445.88 -104.74,81.16 a 0.36,0.36 0 0 1 -0.51,-0.07 L 567.62,413.1 a 0.36,0.36 0 0 1 0.35,-0.57 l 187.86,32.71 a 0.36,0.36 0 0 1 0.16,0.64 z"
       id="path888" />
    <path
       fill="#713d1b"
       d="m 463.45,419.29 q -2.4,9.2 -9.87,15.07 -1.57,1.23 -6.85,2.9 -3.73,1.19 -6.77,0.37 a 2.25,2.24 18.8 0 1 -1.49,-3.02 l 5.33,-12.82 q 9.67,2.36 19.65,-2.5 z"
       id="path890" />
    <path
       fill="#ffffff"
       d="m 550.01,425.27 q 11.29,14.95 21.6,28.87 25.55,34.46 50.82,69.28 a 0.6,0.59 -36.6 0 1 -0.13,0.84 l -100.34,73.23 q -1.31,0.96 -1.03,-0.64 7,-39.61 15.41,-91.33 5.62,-34.54 13.24,-80.14 a 0.24,0.24 0 0 1 0.43,-0.11 z"
       id="path892" />
    <path
       fill="#281e10"
       d="m 500.24,480.26 q -3.54,0.43 -6.56,-0.65 c -4.7,-4.4 -5.88,-12.25 -1.42,-17.01 q 1.68,-1.8 4.09,-3.66 5.99,-4.64 8.25,-11.19 a 0.88,0.88 0 0 1 1.55,-0.22 c 4.78,6.71 4.75,15.23 1.83,23.2 q -2.41,6.56 -7.74,9.53 z"
       id="path894" />
    <path
       fill="#281e10"
       d="m 465.81,453.61 q 0.49,-1.23 1.36,-0.23 0.75,0.86 1.19,1.91 3.5,8.3 1.36,17.01 c -1.68,6.87 -5.09,13.94 -11.31,17.8 -7.04,4.36 -16.54,2.7 -15.69,-7.52 q 0.69,-8.31 8.36,-11.66 c 6.94,-3.03 11.91,-10.16 14.73,-17.31 z"
       id="path896" />
    <path
       fill="#ffffff"
       d="m 750.02,492.04 q -8.02,3.61 -12.14,6.56 -12.41,8.88 -24.86,17.7 c -2.91,2.06 -5.63,4.42 -8.47,6.52 -4.09,3.02 -7.58,6.82 -11.78,9.5 q -4.68,3 -9.27,6.29 a 2.33,2.32 58.5 0 0 -0.7,2.96 q 0.66,1.25 0,1.74 l -6.78,-9.2 q -0.42,-0.56 0.13,-1 l 75.81,-59.93 q 1,-0.79 0.81,0.47 z"
       id="path898" />
    <path
       fill="#713d1b"
       d="m 493.68,479.61 q 3.02,1.08 6.56,0.65 -1.26,1.36 0.4,2.12 1.87,0.85 5.12,0.49 5.07,-0.56 10.3,-1.7 -1.74,9.93 -3.72,19.77 c -0.4,1.97 -0.41,4.13 -0.82,6.14 q -1.24,5.96 -2.16,11.66 -1.15,7.12 -4.72,15.91 c -4.17,10.26 -12.2,20.21 -19.85,27.92 Q 470.26,577.22 452,588.62 a 0.57,0.57 0 0 1 -0.75,-0.13 q -0.31,-0.39 -0.13,-0.85 c 1.17,-2.91 2.38,-7.78 2.02,-11.4 a 1.15,1.15 0 0 0 -1.92,-0.74 q -20.07,18.23 -43.02,28.93 -16.84,7.86 -37.77,13.81 -9.05,2.57 -20.02,4.54 -24.15,4.34 -42.25,6.11 -12.3,1.2 -26.15,1.6 -3.38,0.1 -6.47,-0.35 a 0.52,0.52 0 0 1 -0.28,-0.89 q 13.36,-12.44 27.11,-24.42 1.1,-0.95 2.42,-1.56 a 1.75,1.74 -38 0 1 1.82,0.22 c 5.33,4.19 11.49,7.38 18.32,8.87 q 11.95,2.6 22.94,1.06 c 20.72,-2.91 40.18,-14.42 52.57,-31.56 a 2.6,2.59 -75.1 0 1 1.79,-1.04 c 3.15,-0.34 6.42,-0.44 9.56,-1.06 q 13.07,-2.58 22.29,-13.69 c 2.88,-3.46 4.86,-8 6.8,-12.14 a 1.9,1.9 0 0 1 1.81,-1.09 q 3.17,0.16 6.32,-0.86 15.2,-4.91 20.25,-20.12 1.25,0.22 1.68,-0.41 1.65,-2.36 3.55,-4.31 c 4.14,-4.23 6.85,-8.84 8.33,-14.76 0.96,-3.86 1.89,-7.71 3.27,-11.46 q 3.93,-10.62 7.59,-21.31 z m 13.27,14.43 c -0.46,-1.18 -0.38,-2.49 -0.97,-3.67 a 0.57,0.56 -44.9 0 0 -1.01,0 c -1.04,2.05 -0.9,4.11 -1.96,6.14 -2.38,4.6 -5.46,9.88 -9.86,12.67 -2.86,1.82 -7.03,4.05 -7.51,7.72 -0.82,6.36 1.69,15.7 9.6,15.69 6.2,-0.01 11.71,-9.96 12.63,-14.74 1.43,-7.5 2.01,-16.27 -0.92,-23.81 z"
       id="path900" />
    <path
       fill="#281e10"
       d="m 506.95,494.04 c 2.93,7.54 2.35,16.31 0.92,23.81 -0.92,4.78 -6.43,14.73 -12.63,14.74 -7.91,0.01 -10.42,-9.33 -9.6,-15.69 0.48,-3.67 4.65,-5.9 7.51,-7.72 4.4,-2.79 7.48,-8.07 9.86,-12.67 1.06,-2.03 0.92,-4.09 1.96,-6.14 a 0.57,0.56 -44.9 0 1 1.01,0 c 0.59,1.18 0.51,2.49 0.97,3.67 z"
       id="path902" />
    <path
       fill="#d4e0dc"
       d="m 750.02,492.04 q -1.08,5.56 -2.03,6.95 -1.97,2.89 -7.64,6.61 c -7.79,5.12 -14.81,9.06 -19.2,17.63 q -4.95,9.67 -0.34,19.72 c 0.82,1.81 2.14,3.22 3.09,4.95 a 0.98,0.97 -42.9 0 1 -0.04,1 c -3.98,5.89 -4.86,16.15 -2.42,22.93 q 4.19,11.67 14.49,17.54 a 2.1,2.1 0 0 1 1.04,2.09 l -2.43,19.52 a 0.36,0.36 0 0 1 -0.65,0.17 L 682.8,543.31 q 0.66,-0.49 0,-1.74 a 2.33,2.32 58.5 0 1 0.7,-2.96 q 4.59,-3.29 9.27,-6.29 c 4.2,-2.68 7.69,-6.48 11.78,-9.5 2.84,-2.1 5.56,-4.46 8.47,-6.52 q 12.45,-8.82 24.86,-17.7 4.12,-2.95 12.14,-6.56 z"
       id="path904" />
    <path
       fill="#996034"
       d="m 781.27,532.35 q -2.91,8.03 -7.53,14.12 -2.01,2.65 -4.8,4.4 a 1.31,1.3 62.9 0 1 -1.9,-0.62 q -0.58,-1.39 -1.4,-2.26 5.13,-4.54 7.82,-10.54 0.34,-0.76 -0.47,-0.56 c -10.85,2.81 -25.09,3.02 -34.47,-3.99 a 0.62,0.62 0 0 1 0.16,-1.08 q 15.63,-5.81 25.95,-18.44 c 2.79,-3.42 5.02,-7.52 6.79,-11.52 a 0.57,0.57 0 0 1 1.01,-0.05 q 2.36,4.15 4.3,8.35 4.86,10.53 4.54,22.19 z m -10.32,-25.08 -9.28,15.75 a 0.12,0.12 0 0 0 0.04,0.16 l 0.04,0.03 a 8.27,6.43 -59.5 0 0 9.74,-3.86 l 1.01,-1.71 a 8.27,6.43 -59.5 0 0 -1.35,-10.39 l -0.04,-0.02 a 0.12,0.12 0 0 0 -0.16,0.04 z"
       id="path906" />
    <path
       fill="#ffffff"
       d="m 770.95,507.27 a 0.12,0.12 0 0 1 0.16,-0.04 l 0.04,0.02 a 8.27,6.43 -59.5 0 1 1.35,10.39 l -1.01,1.71 a 8.27,6.43 -59.5 0 1 -9.74,3.86 l -0.04,-0.03 a 0.12,0.12 0 0 1 -0.04,-0.16 z"
       id="path908" />
    <path
       fill="#996034"
       d="m 383.39,526.91 q -5.79,4.46 -10.28,6.96 -9.95,5.54 -22.81,11.51 -6.09,-0.27 -10.08,-3.07 a 0.58,0.57 33.8 0 1 -0.16,-0.78 c 5.75,-9.4 11.09,-17.97 18.86,-26.26 1.32,-1.41 2.35,-3.24 3.3,-4.94 a 0.26,0.26 0 0 1 0.48,0.06 q 2.5,9.38 10.87,13.54 c 2.96,1.48 6.39,1.99 9.82,2.98 z"
       id="path910" />
    <path
       fill="#713d1b"
       d="m 406.67,522.98 q -3.61,15.4 -16.49,26.65 l 4.58,-12.14 q 0.52,-1.39 -0.95,-1.47 -3.52,-0.19 -7.33,1.38 c -8.17,3.36 -15.66,7 -24.72,8.4 q -6.18,0.96 -11.46,-0.42 12.86,-5.97 22.81,-11.51 4.49,-2.5 10.28,-6.96 4.86,1.22 10.87,-0.11 5.79,-1.27 12.41,-3.82 z"
       id="path912" />
    <path
       fill="#713d1b"
       d="m 781.27,532.35 q 1.32,14.99 -2.2,26.91 c -2.69,9.09 -6.81,18.7 -12.78,25.93 a 1.47,1.46 19.2 0 1 -1.11,0.53 q -6.77,0.08 -13.24,-2.29 -0.63,-0.23 -1.14,-0.67 a 0.74,0.74 0 0 1 0.37,-1.3 c 8.84,-1.4 15.48,-8.23 20.54,-15.33 a 0.38,0.38 0 0 0 -0.38,-0.59 q -7.6,1.53 -16.91,0.5 c -6.11,-0.68 -11.01,-1.71 -16.11,-4.79 a 0.44,0.43 -72 0 1 -0.21,-0.42 q 0.07,-0.63 0.65,-0.73 12.07,-1.92 22.58,-9.31 2.16,-1.51 4.31,-2.8 0.82,0.87 1.4,2.26 a 1.31,1.3 62.9 0 0 1.9,0.62 q 2.79,-1.75 4.8,-4.4 4.62,-6.09 7.53,-14.12 z"
       id="path914" />
    <path
       fill="#ffffff"
       d="m 700.44,597.86 q -1.03,0.82 -2.96,-0.17 -1.55,-0.78 -2.63,-0.95 -15.77,-2.43 -31.66,-3.83 c -6.92,-0.61 -13.79,-1.4 -20.69,-2.02 q -8.49,-0.76 -15.59,-1.65 -18.35,-2.31 -36.67,-4.73 -5.01,-0.66 -10.63,-1.58 -0.52,-0.09 -0.67,-0.59 -0.09,-0.3 -0.06,-0.69 27.43,-20.06 54.03,-41.27 0.6,-0.47 0.99,0.18 c 2.57,4.28 7.08,11.85 12.38,12.83 5,0.93 10.2,-3.18 13.3,-7.06 q 0.48,-0.61 0.96,0 z"
       id="path916" />
    <path
       fill="#713d1b"
       d="m 358.18,567.79 q 13.04,-1.45 21.25,-8.89 1.73,-1.56 1.51,0.75 -0.7,7.42 5.32,12.9 a 0.67,0.67 0 0 1 -0.03,1.01 c -4.27,3.54 -8.16,7.01 -13.06,9.91 q -15.35,9.08 -32.81,8.87 c -9.33,-0.11 -16.9,-2.66 -24.66,-7.15 a 0.73,0.72 -59.3 0 1 -0.25,-1.01 q 3.53,-5.82 8.98,-10.33 6.26,-5.18 12.51,-10.21 a 1.36,1.35 38.6 0 1 1.47,-0.16 c 6.42,3.18 12.27,5.14 19.77,4.31 z"
       id="path918" />
    <path
       fill="#d4e0dc"
       d="m 578.88,581.65 q -0.03,0.39 0.06,0.69 0.15,0.5 0.67,0.59 5.62,0.92 10.63,1.58 18.32,2.42 36.67,4.73 7.1,0.89 15.59,1.65 c 6.9,0.62 13.77,1.41 20.69,2.02 q 15.89,1.4 31.66,3.83 1.08,0.17 2.63,0.95 1.93,0.99 2.96,0.17 l 20.06,26.61 q 1.15,1.54 -0.77,1.36 l -176.7,-16.28 q -0.86,-0.08 -0.17,-0.6 z"
       id="path920" />
    <path
       fill="#d4e0dc"
       d="M 556.84,634.04 C 541.77,646.87 524.81,655.1 506,661.47 q -20.79,7.03 -44.01,4.98 -0.35,-0.03 -0.61,-0.26 a 0.22,0.22 0 0 1 0.1,-0.38 c 7.79,-1.99 16.06,-5.36 23.01,-9.36 q 6.43,-3.7 13.19,-7.65 1.09,-0.63 -0.17,-0.63 -24.99,-0.03 -48.76,-8.39 -10.55,-3.71 -21.18,-11.24 8.73,-3.18 16.89,-7.33 7.1,-3.61 16.06,-8.89 c 12.64,-7.44 23.68,-15.11 34.17,-24.9 q 1.88,-1.76 3.49,-4.06 0.25,-0.36 0.67,-0.43 a 0.36,0.35 -0.6 0 1 0.41,0.4 q -1.74,11.6 -3.75,23.47 -1.59,9.44 -0.82,12.59 c 2.22,9.11 9.04,9.89 17.38,10.59 q 19.3,1.63 39.18,3.35 3.78,0.33 5.59,0.71 z"
       id="path922" />
    <path
       fill="#a58467"
       d="m 427.57,628.54 q 10.63,7.53 21.18,11.24 23.77,8.36 48.76,8.39 1.26,0 0.17,0.63 -6.76,3.95 -13.19,7.65 c -6.95,4 -15.22,7.37 -23.01,9.36 a 0.22,0.22 0 0 0 -0.1,0.38 q 0.26,0.23 0.61,0.26 23.22,2.05 44.01,-4.98 c 18.81,-6.37 35.77,-14.6 50.84,-27.43 l 6.73,0.56 q -4.48,11.49 -12.78,19.28 -1.32,1.24 0.41,0.7 15.28,-4.76 28.67,-13.94 1.06,-0.73 3.48,-1.96 1.75,-0.89 3.38,-2.19 l 35.22,2.85 q 0.95,0.07 0.19,0.65 -4.45,3.43 -11.9,8.75 -26.06,18.59 -57.39,25.81 -23.14,5.33 -46.01,5.1 -34.97,-0.35 -65.96,-13.76 -19.49,-8.43 -37.71,-21.56 -2.89,-2.08 -5.22,-4.54 a 0.45,0.45 0 0 1 0.2,-0.74 q 15.14,-4.27 29.42,-10.51 z"
       id="path924" />
    <path
       fill="#d4e0dc"
       d="m 563.57,634.6 23.16,1.89 q -1.63,1.3 -3.38,2.19 -2.42,1.23 -3.48,1.96 -13.39,9.18 -28.67,13.94 -1.73,0.54 -0.41,-0.7 8.3,-7.79 12.78,-19.28 z"
       id="path926" />
  </g>
</svg>
